<?xml version="1.0" encoding="utf-8"?>
<!-- Generator: Adobe Illustrator 23.1.0, SVG Export Plug-In . SVG Version: 6.00 Build 0)  -->
<svg version="1.1" id="Layer_1" xmlns="http://www.w3.org/2000/svg" xmlns:xlink="http://www.w3.org/1999/xlink" x="0px" y="0px"
	 viewBox="0 0 427 49.7" style="enable-background:new 0 0 427 49.7;" xml:space="preserve">
<g>
	<path d="M15.6,44h5.7v1.4c-3.5-0.2-6.3-0.2-8-0.2c-1.8,0-4.5,0.1-8,0.2V44h4.8V7.9H5.4V6.5C8,6.6,9.5,6.6,12.8,6.6h7.4
		c6.3,0,9,0.6,11.6,2.3c2.5,1.7,3.9,4.4,3.9,7.8c0,4.2-1.9,7.5-5.3,9.1c-2.8,1.4-6.3,2-11.5,2h-3.2V44z M18.6,26.6
		c4.1,0,6.3-0.5,8.1-2c2-1.6,3-4.2,3-7.6c0-6.1-2.9-9.1-8.7-9.1h-5.4v18.7H18.6z"/>
	<path d="M67.7,16.4c-0.3-6.3-3.3-8.7-10.7-8.5h-7.6v16.8h3.8c6.7,0.1,8.5-1.3,8.6-6.4h1.3V20l-0.1,5.7c0,0.4,0,2.1,0.1,6.7h-1.3
		c-0.3-5.2-2-6.4-8.7-6.3h-3.6V44h7.9c7.8,0.1,11.1-2.7,11.1-9.3h1.4v4v6.7c-0.5,0-4.3-0.1-11.5-0.2h-7.9c-0.5,0-2.4,0-4.6,0.1
		c-2.1,0.1-4.1,0.1-4.6,0.1l-2.3,0.1V44h4.9V7.9h-4.9V6.5l2.3,0.1c4,0.1,5.7,0.1,9.2,0.2h7c0.7,0,2.7,0,4.8-0.1
		c2.1-0.1,3.8-0.1,4.5-0.1l2.2-0.1V8v3.6v3.2v1.6H67.7z"/>
	<path d="M109.8,45.4c-1.9-0.2-3.5-0.2-4.3-0.2c-1.2,0-2.7,0.1-4.7,0.2c-1.1-2-1.2-2.8-1.7-9.6c-0.7-7.4-2.4-8.9-9.6-8.8h-4.7v17h5
		v1.4c-3.3-0.2-5.9-0.2-7.5-0.2c-1.7,0-4.3,0.1-7.8,0.2V44h4.9V7.9h-4.9V6.5c2.8,0.2,3.8,0.2,6.5,0.2l8.9-0.1
		c5.6,0,8.4,0.6,10.9,2.5c2.4,1.7,3.7,4.3,3.7,7.5c0,3.6-1.7,6.5-4.8,8c-1.7,0.9-3.1,1.2-6.1,1.6c8.3-0.1,10.5,2.1,11.2,11.5
		c0.5,5.7,1,6.3,5.1,6.3V45.4z M89.7,25.7c5.7,0,8.9-3.2,8.9-9c0-3-1-5.6-2.7-7c-1.5-1.2-3.6-1.8-6.8-1.8h-4.3v17.8H89.7z"/>
	<path d="M149.5,7.9h-3.9c-0.4,1.9-0.5,2.6-0.6,7.7v14.8c0,5.1-0.8,8-2.7,10.6c-2.4,3.2-6.5,5-11.6,5c-5.9,0-10.6-2.2-12.9-6.1
		c-1.4-2.4-2-5.1-2-10.1V7.9h-4.9V6.5c3.3,0.2,5.9,0.2,7.5,0.2c1.7,0,4.3-0.1,7.6-0.2v1.4h-4.7V31c0,3.9,0.5,6.8,1.7,9
		c1.5,2.8,4.9,4.6,8.6,4.6c3.8,0,7.4-1.7,9.3-4.4c1.6-2.2,2.3-5,2.3-9.7V15.6c-0.1-4.5-0.2-5.8-0.5-7.7h-4.3V6.5
		c2.5,0.2,4.3,0.2,5.7,0.2c1,0,3-0.1,5.3-0.2V7.9z"/>
	<path d="M158.1,9v26.9c0.1,3.9,0.3,6,0.8,8.1h4.2v1.4c-2.5-0.2-4.4-0.2-5.6-0.2c-1.3,0-3.2,0.1-5.7,0.2V44h4.5
		c0.2-2.4,0.3-4.8,0.4-8.1v-28h-4.9V6.5c2.7,0.2,4.5,0.2,6,0.2c1,0,3-0.1,5.3-0.2l21.4,30.2V16.1c-0.2-3.9-0.3-6.3-0.6-8.2h-4.4V6.5
		c2.5,0.2,4.4,0.2,5.6,0.2c1.3,0,3.2-0.1,5.7-0.2v1.4h-4.3c-0.4,3.1-0.5,4.5-0.5,8.2v29.6h-2.1L158.1,9z"/>
	<path d="M211.3,6.5c3.4,0.2,3.6,0.2,11.1,0.2c10.9,0,12.2,0.1,15.6,1.5c6.7,2.7,10.7,9.3,10.7,17.9c0,9.4-5,16.3-13.4,18.4
		c-3,0.8-3.9,0.8-16.4,0.8h-4.5c-0.5,0-1.8,0.1-3.2,0.1V44h4.9V7.9h-4.9V6.5z M225.6,44c7,0,10.5-1.2,13.3-4.6
		c2.5-3.1,3.8-7.4,3.8-13.4c0-6.8-1.5-11.6-4.5-14.5c-2.5-2.5-6.1-3.6-11.6-3.6h-4.9V44H225.6z"/>
	<path d="M282.1,16.4c-0.3-6.3-3.3-8.7-10.7-8.5h-7.6v16.8h3.8c6.7,0.1,8.5-1.3,8.6-6.4h1.3V20l-0.1,5.7c0,0.4,0,2.1,0.1,6.7h-1.3
		c-0.3-5.2-2-6.4-8.7-6.3h-3.6V44h7.9c7.8,0.1,11.1-2.7,11.1-9.3h1.4v4v6.7c-0.5,0-4.3-0.1-11.5-0.2h-7.9c-0.5,0-2.4,0-4.6,0.1
		c-2.1,0.1-4.1,0.1-4.6,0.1l-2.3,0.1V44h4.9V7.9h-4.9V6.5l2.3,0.1c4,0.1,5.7,0.1,9.2,0.2h7c0.7,0,2.7,0,4.8-0.1
		c2.1-0.1,3.8-0.1,4.5-0.1l2.2-0.1V8v3.6v3.2v1.6H282.1z"/>
	<path d="M293.4,33.6c0.1,2.7,0.4,3.9,1.2,5.6c1.7,3.6,4.9,5.6,9.1,5.6c5,0,8.6-3.2,8.6-7.6c0-1.9-0.9-4.1-2.4-5.6
		c-1.1-1.1-2.4-1.9-5.2-3l-3.6-1.6c-3.5-1.4-5-2.4-6.5-3.9c-1.9-1.9-2.9-4.3-2.9-6.8c0-6.2,5.2-10.5,12.6-10.5c2.1,0,4.7,0.3,7.4,1
		c1.2,0.2,2,0.4,2.3,0.5c0.2,0.1,0.8,0.1,1.4,0.1c-0.1,1.8-0.1,2.7-0.1,4c0,1.1,0.1,3.4,0.1,6H314c-0.1-2.8-0.5-4.1-1.4-5.8
		c-1.7-3-4.6-4.6-8.1-4.6c-4.6,0-7.8,2.9-7.8,7.1c0,3.5,1.8,5.5,7,7.8l3.7,1.6c3.3,1.4,4.7,2.3,6.1,3.5c2.3,2.1,3.6,4.8,3.6,7.8
		c0,6.5-5.5,11.3-13.2,11.3c-2.2,0-4.3-0.3-7.6-1c-2.4-0.6-3.1-0.7-4.3-0.8c0.1-2.6,0.1-4.6,0.1-5.8c0-1.1,0-2.7-0.1-4.7H293.4z"/>
	<path d="M332.6,44h4.9v1.4c-3.3-0.2-5.9-0.2-7.5-0.2c-1.8,0-4.3,0.1-7.8,0.2V44h4.9V7.9h-4.9V6.5c3.3,0.2,5.9,0.2,7.6,0.2
		c1.7,0,4.2-0.1,7.6-0.2v1.4h-4.9V44z"/>
	<path d="M373.1,18.6c-0.2-3-0.6-4.4-1.6-6.3c-1.8-3.2-5.3-5.2-9.7-5.2c-8.6,0-13.2,6.5-13.2,18.6c0,5.8,1,10.2,3,13.5
		c2.1,3.4,5.8,5.4,10,5.4c2.8,0,5.5-0.7,8.4-2.2V30.7h-4.7v-1.3c2.3,0.1,3.2,0.1,6.3,0.1c4.5,0,5.4,0,8.2-0.1v1.3h-4.3v13.6
		c-3,0.1-3.1,0.1-8.5,1.1c-2.1,0.4-4.2,0.6-5.8,0.6c-5.3,0-10.6-2.2-13.8-5.7c-3.1-3.4-4.7-8.4-4.7-14.3c0-12.3,7.4-20.1,19.1-20.1
		c2.1,0,4.1,0.2,6.6,0.8c3.8,0.8,4,0.8,6.2,0.9c-0.1,3.4-0.1,4.1-0.1,5.3s0,1.7,0.1,5.6H373.1z"/>
	<path d="M388.4,9v26.9c0.1,3.9,0.3,6,0.8,8.1h4.2v1.4c-2.5-0.2-4.4-0.2-5.6-0.2c-1.3,0-3.2,0.1-5.7,0.2V44h4.5
		c0.2-2.4,0.3-4.8,0.4-8.1v-28H382V6.5c2.7,0.2,4.5,0.2,6,0.2c1,0,3-0.1,5.3-0.2l21.4,30.2V16.1c-0.2-3.9-0.3-6.3-0.6-8.2h-4.4V6.5
		c2.5,0.2,4.4,0.2,5.6,0.2c1.3,0,3.2-0.1,5.7-0.2v1.4h-4.3c-0.4,3.1-0.5,4.5-0.5,8.2v29.6h-2.1L388.4,9z"/>
</g>
</svg>
